<mxfile host="app.diagrams.net" agent="Mozilla/5.0 (Macintosh; Intel Mac OS X 10_15_7) AppleWebKit/537.36 (KHTML, like Gecko) Chrome/129.0.0.0 Safari/537.36" version="24.7.17">
  <diagram name="Page-1" id="QqypAmSVwoRFTV60dapY">
    <mxGraphModel dx="1988" dy="909" grid="1" gridSize="10" guides="0" tooltips="1" connect="1" arrows="1" fold="1" page="1" pageScale="1" pageWidth="850" pageHeight="1100" math="0" shadow="0">
      <root>
        <mxCell id="0" />
        <mxCell id="1" parent="0" />
        <mxCell id="HNZjRyxz7ARNzgIqMJ-2-5" style="edgeStyle=orthogonalEdgeStyle;rounded=0;orthogonalLoop=1;jettySize=auto;html=1;entryX=0.5;entryY=0;entryDx=0;entryDy=0;startArrow=classic;startFill=1;endArrow=none;endFill=0;" parent="1" source="4PjpEs8UU0IrZiODhAVp-5" target="HNZjRyxz7ARNzgIqMJ-2-1" edge="1">
          <mxGeometry relative="1" as="geometry" />
        </mxCell>
        <mxCell id="4PjpEs8UU0IrZiODhAVp-5" value="Session" style="swimlane;fontStyle=0;childLayout=stackLayout;horizontal=1;startSize=30;horizontalStack=0;resizeParent=1;resizeParentMax=0;resizeLast=0;collapsible=1;marginBottom=0;whiteSpace=wrap;html=1;" parent="1" vertex="1">
          <mxGeometry x="560" y="120" width="140" height="90" as="geometry" />
        </mxCell>
        <mxCell id="4PjpEs8UU0IrZiODhAVp-6" value="&lt;u&gt;session_id&lt;/u&gt;: integer" style="text;strokeColor=none;fillColor=none;align=left;verticalAlign=middle;spacingLeft=4;spacingRight=4;overflow=hidden;points=[[0,0.5],[1,0.5]];portConstraint=eastwest;rotatable=0;whiteSpace=wrap;html=1;" parent="4PjpEs8UU0IrZiODhAVp-5" vertex="1">
          <mxGeometry y="30" width="140" height="30" as="geometry" />
        </mxCell>
        <mxCell id="4PjpEs8UU0IrZiODhAVp-8" value="timestamp: datetime" style="text;strokeColor=none;fillColor=none;align=left;verticalAlign=middle;spacingLeft=4;spacingRight=4;overflow=hidden;points=[[0,0.5],[1,0.5]];portConstraint=eastwest;rotatable=0;whiteSpace=wrap;html=1;" parent="4PjpEs8UU0IrZiODhAVp-5" vertex="1">
          <mxGeometry y="60" width="140" height="30" as="geometry" />
        </mxCell>
        <mxCell id="4PjpEs8UU0IrZiODhAVp-14" value="Order" style="swimlane;fontStyle=0;childLayout=stackLayout;horizontal=1;startSize=30;horizontalStack=0;resizeParent=1;resizeParentMax=0;resizeLast=0;collapsible=1;marginBottom=0;whiteSpace=wrap;html=1;" parent="1" vertex="1">
          <mxGeometry x="560" y="370" width="140" height="90" as="geometry" />
        </mxCell>
        <mxCell id="4PjpEs8UU0IrZiODhAVp-15" value="&lt;u&gt;order_id&lt;/u&gt;: integer" style="text;strokeColor=none;fillColor=none;align=left;verticalAlign=middle;spacingLeft=4;spacingRight=4;overflow=hidden;points=[[0,0.5],[1,0.5]];portConstraint=eastwest;rotatable=0;whiteSpace=wrap;html=1;" parent="4PjpEs8UU0IrZiODhAVp-14" vertex="1">
          <mxGeometry y="30" width="140" height="30" as="geometry" />
        </mxCell>
        <mxCell id="4PjpEs8UU0IrZiODhAVp-16" value="amount: real" style="text;strokeColor=none;fillColor=none;align=left;verticalAlign=middle;spacingLeft=4;spacingRight=4;overflow=hidden;points=[[0,0.5],[1,0.5]];portConstraint=eastwest;rotatable=0;whiteSpace=wrap;html=1;" parent="4PjpEs8UU0IrZiODhAVp-14" vertex="1">
          <mxGeometry y="60" width="140" height="30" as="geometry" />
        </mxCell>
        <mxCell id="4PjpEs8UU0IrZiODhAVp-23" value="Story" style="swimlane;fontStyle=0;childLayout=stackLayout;horizontal=1;startSize=30;horizontalStack=0;resizeParent=1;resizeParentMax=0;resizeLast=0;collapsible=1;marginBottom=0;whiteSpace=wrap;html=1;" parent="1" vertex="1">
          <mxGeometry x="1440" y="180" width="190" height="90" as="geometry" />
        </mxCell>
        <mxCell id="4PjpEs8UU0IrZiODhAVp-25" value="&lt;u&gt;story_id&lt;/u&gt;: integer" style="text;strokeColor=none;fillColor=none;align=left;verticalAlign=middle;spacingLeft=4;spacingRight=4;overflow=hidden;points=[[0,0.5],[1,0.5]];portConstraint=eastwest;rotatable=0;whiteSpace=wrap;html=1;" parent="4PjpEs8UU0IrZiODhAVp-23" vertex="1">
          <mxGeometry y="30" width="190" height="30" as="geometry" />
        </mxCell>
        <mxCell id="4PjpEs8UU0IrZiODhAVp-114" value="generated_story_text: string" style="text;strokeColor=none;fillColor=none;align=left;verticalAlign=middle;spacingLeft=4;spacingRight=4;overflow=hidden;points=[[0,0.5],[1,0.5]];portConstraint=eastwest;rotatable=0;whiteSpace=wrap;html=1;" parent="4PjpEs8UU0IrZiODhAVp-23" vertex="1">
          <mxGeometry y="60" width="190" height="30" as="geometry" />
        </mxCell>
        <mxCell id="HNZjRyxz7ARNzgIqMJ-2-4" style="edgeStyle=orthogonalEdgeStyle;rounded=0;orthogonalLoop=1;jettySize=auto;html=1;exitX=0;exitY=0.5;exitDx=0;exitDy=0;entryX=1;entryY=0.5;entryDx=0;entryDy=0;" parent="1" source="4PjpEs8UU0IrZiODhAVp-45" target="4PjpEs8UU0IrZiODhAVp-34" edge="1">
          <mxGeometry relative="1" as="geometry" />
        </mxCell>
        <mxCell id="4PjpEs8UU0IrZiODhAVp-45" value="Completed" style="rhombus;whiteSpace=wrap;html=1;" parent="1" vertex="1">
          <mxGeometry x="330" y="250" width="155" height="80" as="geometry" />
        </mxCell>
        <mxCell id="4PjpEs8UU0IrZiODhAVp-62" value="Temp Story" style="swimlane;fontStyle=0;childLayout=stackLayout;horizontal=1;startSize=30;horizontalStack=0;resizeParent=1;resizeParentMax=0;resizeLast=0;collapsible=1;marginBottom=0;whiteSpace=wrap;html=1;" parent="1" vertex="1">
          <mxGeometry x="1140" y="410" width="180" height="60" as="geometry" />
        </mxCell>
        <mxCell id="4PjpEs8UU0IrZiODhAVp-66" value="Display Story" style="swimlane;fontStyle=0;childLayout=stackLayout;horizontal=1;startSize=30;horizontalStack=0;resizeParent=1;resizeParentMax=0;resizeLast=0;collapsible=1;marginBottom=0;whiteSpace=wrap;html=1;" parent="1" vertex="1">
          <mxGeometry x="1210" y="50" width="180" height="90" as="geometry" />
        </mxCell>
        <mxCell id="4PjpEs8UU0IrZiODhAVp-111" value="references: string" style="text;strokeColor=none;fillColor=none;align=left;verticalAlign=middle;spacingLeft=4;spacingRight=4;overflow=hidden;points=[[0,0.5],[1,0.5]];portConstraint=eastwest;rotatable=0;whiteSpace=wrap;html=1;" parent="4PjpEs8UU0IrZiODhAVp-66" vertex="1">
          <mxGeometry y="30" width="180" height="30" as="geometry" />
        </mxCell>
        <mxCell id="4PjpEs8UU0IrZiODhAVp-112" value="reference summary: string" style="text;strokeColor=none;fillColor=none;align=left;verticalAlign=middle;spacingLeft=4;spacingRight=4;overflow=hidden;points=[[0,0.5],[1,0.5]];portConstraint=eastwest;rotatable=0;whiteSpace=wrap;html=1;" parent="4PjpEs8UU0IrZiODhAVp-66" vertex="1">
          <mxGeometry y="60" width="180" height="30" as="geometry" />
        </mxCell>
        <mxCell id="4PjpEs8UU0IrZiODhAVp-76" style="edgeStyle=orthogonalEdgeStyle;rounded=0;orthogonalLoop=1;jettySize=auto;html=1;exitX=1;exitY=0.5;exitDx=0;exitDy=0;shape=link;entryX=0;entryY=0.5;entryDx=0;entryDy=0;" parent="1" source="4PjpEs8UU0IrZiODhAVp-74" target="4PjpEs8UU0IrZiODhAVp-111" edge="1">
          <mxGeometry relative="1" as="geometry">
            <Array as="points">
              <mxPoint x="1185" y="100" />
              <mxPoint x="1210" y="100" />
            </Array>
          </mxGeometry>
        </mxCell>
        <mxCell id="4PjpEs8UU0IrZiODhAVp-74" value="Generated" style="rhombus;whiteSpace=wrap;html=1;" parent="1" vertex="1">
          <mxGeometry x="1030" y="180" width="155" height="80" as="geometry" />
        </mxCell>
        <mxCell id="4PjpEs8UU0IrZiODhAVp-75" style="edgeStyle=orthogonalEdgeStyle;rounded=0;orthogonalLoop=1;jettySize=auto;html=1;exitX=0.5;exitY=0;exitDx=0;exitDy=0;entryX=0;entryY=0.5;entryDx=0;entryDy=0;startArrow=classic;startFill=1;endArrow=none;endFill=0;" parent="1" source="4PjpEs8UU0IrZiODhAVp-80" target="4PjpEs8UU0IrZiODhAVp-74" edge="1">
          <mxGeometry relative="1" as="geometry">
            <mxPoint x="1060" y="400" as="sourcePoint" />
          </mxGeometry>
        </mxCell>
        <mxCell id="4PjpEs8UU0IrZiODhAVp-80" value="API Call" style="swimlane;fontStyle=0;childLayout=stackLayout;horizontal=1;startSize=30;horizontalStack=0;resizeParent=1;resizeParentMax=0;resizeLast=0;collapsible=1;marginBottom=0;whiteSpace=wrap;html=1;" parent="1" vertex="1">
          <mxGeometry x="920" y="355" width="140" height="60" as="geometry" />
        </mxCell>
        <mxCell id="4PjpEs8UU0IrZiODhAVp-82" value="prompt: string" style="text;strokeColor=none;fillColor=none;align=left;verticalAlign=middle;spacingLeft=4;spacingRight=4;overflow=hidden;points=[[0,0.5],[1,0.5]];portConstraint=eastwest;rotatable=0;whiteSpace=wrap;html=1;" parent="4PjpEs8UU0IrZiODhAVp-80" vertex="1">
          <mxGeometry y="30" width="140" height="30" as="geometry" />
        </mxCell>
        <mxCell id="4PjpEs8UU0IrZiODhAVp-123" style="edgeStyle=orthogonalEdgeStyle;rounded=0;orthogonalLoop=1;jettySize=auto;html=1;shape=link;" parent="1" source="4PjpEs8UU0IrZiODhAVp-85" target="4PjpEs8UU0IrZiODhAVp-118" edge="1">
          <mxGeometry relative="1" as="geometry" />
        </mxCell>
        <mxCell id="4PjpEs8UU0IrZiODhAVp-124" style="edgeStyle=orthogonalEdgeStyle;rounded=0;orthogonalLoop=1;jettySize=auto;html=1;exitX=0.5;exitY=0;exitDx=0;exitDy=0;entryX=0.997;entryY=0.481;entryDx=0;entryDy=0;entryPerimeter=0;" parent="1" source="4PjpEs8UU0IrZiODhAVp-85" target="HNZjRyxz7ARNzgIqMJ-2-2" edge="1">
          <mxGeometry relative="1" as="geometry" />
        </mxCell>
        <mxCell id="4PjpEs8UU0IrZiODhAVp-85" value="Initiated" style="rhombus;whiteSpace=wrap;html=1;" parent="1" vertex="1">
          <mxGeometry x="723.75" y="370" width="152.5" height="75" as="geometry" />
        </mxCell>
        <mxCell id="4PjpEs8UU0IrZiODhAVp-100" style="edgeStyle=orthogonalEdgeStyle;rounded=0;orthogonalLoop=1;jettySize=auto;html=1;entryX=0.5;entryY=1;entryDx=0;entryDy=0;exitX=0.5;exitY=0;exitDx=0;exitDy=0;" parent="1" source="ao48UMOlkTmNIIt56R8A-1" target="4PjpEs8UU0IrZiODhAVp-62" edge="1">
          <mxGeometry relative="1" as="geometry">
            <mxPoint x="1200" y="235" as="targetPoint" />
            <mxPoint x="1080" y="560" as="sourcePoint" />
          </mxGeometry>
        </mxCell>
        <mxCell id="4PjpEs8UU0IrZiODhAVp-106" style="edgeStyle=orthogonalEdgeStyle;rounded=0;orthogonalLoop=1;jettySize=auto;html=1;exitX=1;exitY=0.5;exitDx=0;exitDy=0;entryX=0;entryY=0.5;entryDx=0;entryDy=0;shape=link;" parent="1" source="4PjpEs8UU0IrZiODhAVp-99" target="4PjpEs8UU0IrZiODhAVp-21" edge="1">
          <mxGeometry relative="1" as="geometry" />
        </mxCell>
        <mxCell id="ao48UMOlkTmNIIt56R8A-7" style="edgeStyle=orthogonalEdgeStyle;rounded=0;orthogonalLoop=1;jettySize=auto;html=1;exitX=0.5;exitY=0;exitDx=0;exitDy=0;" edge="1" parent="1" source="4PjpEs8UU0IrZiODhAVp-99">
          <mxGeometry relative="1" as="geometry">
            <mxPoint x="1247.5555555555552" y="779.9713261648749" as="targetPoint" />
          </mxGeometry>
        </mxCell>
        <mxCell id="4PjpEs8UU0IrZiODhAVp-99" value="identified" style="rhombus;whiteSpace=wrap;html=1;" parent="1" vertex="1">
          <mxGeometry x="1170" y="780" width="155" height="80" as="geometry" />
        </mxCell>
        <mxCell id="4PjpEs8UU0IrZiODhAVp-104" style="edgeStyle=orthogonalEdgeStyle;rounded=0;orthogonalLoop=1;jettySize=auto;html=1;exitX=0;exitY=0.5;exitDx=0;exitDy=0;entryX=0.997;entryY=0.012;entryDx=0;entryDy=0;entryPerimeter=0;" parent="1" target="4PjpEs8UU0IrZiODhAVp-97" edge="1">
          <mxGeometry relative="1" as="geometry">
            <Array as="points">
              <mxPoint x="1100" y="704" />
              <mxPoint x="1080" y="704" />
            </Array>
          </mxGeometry>
        </mxCell>
        <mxCell id="4PjpEs8UU0IrZiODhAVp-118" value="Transaction" style="swimlane;fontStyle=0;childLayout=stackLayout;horizontal=1;startSize=30;horizontalStack=0;resizeParent=1;resizeParentMax=0;resizeLast=0;collapsible=1;marginBottom=0;whiteSpace=wrap;html=1;" parent="1" vertex="1">
          <mxGeometry x="730" y="505" width="140" height="60" as="geometry" />
        </mxCell>
        <mxCell id="4PjpEs8UU0IrZiODhAVp-119" value="&lt;u&gt;transaction_id&lt;/u&gt;: string" style="text;strokeColor=none;fillColor=none;align=left;verticalAlign=middle;spacingLeft=4;spacingRight=4;overflow=hidden;points=[[0,0.5],[1,0.5]];portConstraint=eastwest;rotatable=0;whiteSpace=wrap;html=1;" parent="4PjpEs8UU0IrZiODhAVp-118" vertex="1">
          <mxGeometry y="30" width="140" height="30" as="geometry" />
        </mxCell>
        <mxCell id="4PjpEs8UU0IrZiODhAVp-125" style="edgeStyle=orthogonalEdgeStyle;rounded=0;orthogonalLoop=1;jettySize=auto;html=1;exitX=0.5;exitY=0;exitDx=0;exitDy=0;entryX=0;entryY=0.5;entryDx=0;entryDy=0;" parent="1" source="4PjpEs8UU0IrZiODhAVp-62" target="4PjpEs8UU0IrZiODhAVp-25" edge="1">
          <mxGeometry relative="1" as="geometry">
            <Array as="points">
              <mxPoint x="1230" y="225" />
            </Array>
          </mxGeometry>
        </mxCell>
        <mxCell id="4PjpEs8UU0IrZiODhAVp-126" style="edgeStyle=orthogonalEdgeStyle;rounded=0;orthogonalLoop=1;jettySize=auto;html=1;entryX=0;entryY=0.5;entryDx=0;entryDy=0;" parent="1" source="4PjpEs8UU0IrZiODhAVp-66" target="4PjpEs8UU0IrZiODhAVp-25" edge="1">
          <mxGeometry relative="1" as="geometry">
            <Array as="points">
              <mxPoint x="1300" y="225" />
            </Array>
          </mxGeometry>
        </mxCell>
        <mxCell id="4PjpEs8UU0IrZiODhAVp-127" value="" style="group" parent="1" vertex="1" connectable="0">
          <mxGeometry x="1380" y="630" width="200" height="215" as="geometry" />
        </mxCell>
        <mxCell id="4PjpEs8UU0IrZiODhAVp-19" value="Wiki Reference" style="swimlane;fontStyle=0;childLayout=stackLayout;horizontal=1;startSize=30;horizontalStack=0;resizeParent=1;resizeParentMax=0;resizeLast=0;collapsible=1;marginBottom=0;whiteSpace=wrap;html=1;" parent="4PjpEs8UU0IrZiODhAVp-127" vertex="1">
          <mxGeometry width="200" height="120" as="geometry" />
        </mxCell>
        <mxCell id="4PjpEs8UU0IrZiODhAVp-20" value="&lt;u&gt;wiki_page_id&lt;/u&gt;: string" style="text;strokeColor=none;fillColor=none;align=left;verticalAlign=middle;spacingLeft=4;spacingRight=4;overflow=hidden;points=[[0,0.5],[1,0.5]];portConstraint=eastwest;rotatable=0;whiteSpace=wrap;html=1;" parent="4PjpEs8UU0IrZiODhAVp-19" vertex="1">
          <mxGeometry y="30" width="200" height="30" as="geometry" />
        </mxCell>
        <mxCell id="4PjpEs8UU0IrZiODhAVp-21" value="text_corpus: string" style="text;strokeColor=none;fillColor=none;align=left;verticalAlign=middle;spacingLeft=4;spacingRight=4;overflow=hidden;points=[[0,0.5],[1,0.5]];portConstraint=eastwest;rotatable=0;whiteSpace=wrap;html=1;" parent="4PjpEs8UU0IrZiODhAVp-19" vertex="1">
          <mxGeometry y="60" width="200" height="30" as="geometry" />
        </mxCell>
        <mxCell id="4PjpEs8UU0IrZiODhAVp-22" value="url: string" style="text;strokeColor=none;fillColor=none;align=left;verticalAlign=middle;spacingLeft=4;spacingRight=4;overflow=hidden;points=[[0,0.5],[1,0.5]];portConstraint=eastwest;rotatable=0;whiteSpace=wrap;html=1;" parent="4PjpEs8UU0IrZiODhAVp-19" vertex="1">
          <mxGeometry y="90" width="200" height="30" as="geometry" />
        </mxCell>
        <mxCell id="4PjpEs8UU0IrZiODhAVp-115" value="url: length of the string has to be bigger than the length of the prefix of the wikipedia page urls" style="text;strokeColor=none;fillColor=none;align=left;verticalAlign=middle;spacingLeft=4;spacingRight=4;overflow=hidden;points=[[0,0.5],[1,0.5]];portConstraint=eastwest;rotatable=0;whiteSpace=wrap;html=1;" parent="4PjpEs8UU0IrZiODhAVp-127" vertex="1">
          <mxGeometry y="120" width="200" height="65" as="geometry" />
        </mxCell>
        <mxCell id="4PjpEs8UU0IrZiODhAVp-128" value="" style="group" parent="1" vertex="1" connectable="0">
          <mxGeometry x="1150" y="630" width="140" height="135" as="geometry" />
        </mxCell>
        <mxCell id="4PjpEs8UU0IrZiODhAVp-95" value="SBERT Call" style="swimlane;fontStyle=0;childLayout=stackLayout;horizontal=1;startSize=30;horizontalStack=0;resizeParent=1;resizeParentMax=0;resizeLast=0;collapsible=1;marginBottom=0;whiteSpace=wrap;html=1;" parent="4PjpEs8UU0IrZiODhAVp-128" vertex="1">
          <mxGeometry width="140" height="56.12903225806451" as="geometry" />
        </mxCell>
        <mxCell id="4PjpEs8UU0IrZiODhAVp-97" value="corpus: string" style="text;strokeColor=none;fillColor=none;align=left;verticalAlign=middle;spacingLeft=4;spacingRight=4;overflow=hidden;points=[[0,0.5],[1,0.5]];portConstraint=eastwest;rotatable=0;whiteSpace=wrap;html=1;" parent="4PjpEs8UU0IrZiODhAVp-95" vertex="1">
          <mxGeometry y="30" width="140" height="26.129032258064516" as="geometry" />
        </mxCell>
        <mxCell id="3HgNUxf4xAOzRMvEtiia-1" value="corpus: length has be greater than zero" style="text;strokeColor=none;fillColor=none;align=left;verticalAlign=middle;spacingLeft=4;spacingRight=4;overflow=hidden;points=[[0,0.5],[1,0.5]];portConstraint=eastwest;rotatable=0;whiteSpace=wrap;html=1;" parent="4PjpEs8UU0IrZiODhAVp-128" vertex="1">
          <mxGeometry y="60.96774193548387" width="140" height="34.83870967741935" as="geometry" />
        </mxCell>
        <mxCell id="4PjpEs8UU0IrZiODhAVp-129" style="edgeStyle=orthogonalEdgeStyle;rounded=0;orthogonalLoop=1;jettySize=auto;html=1;exitX=0;exitY=0.5;exitDx=0;exitDy=0;entryX=1;entryY=0.5;entryDx=0;entryDy=0;" parent="1" target="4PjpEs8UU0IrZiODhAVp-119" edge="1">
          <mxGeometry relative="1" as="geometry">
            <mxPoint x="920" y="400" as="sourcePoint" />
          </mxGeometry>
        </mxCell>
        <mxCell id="4PjpEs8UU0IrZiODhAVp-130" style="edgeStyle=orthogonalEdgeStyle;rounded=0;orthogonalLoop=1;jettySize=auto;html=1;entryX=1;entryY=0.5;entryDx=0;entryDy=0;exitX=0;exitY=0.25;exitDx=0;exitDy=0;" parent="1" target="4PjpEs8UU0IrZiODhAVp-119" edge="1" source="4PjpEs8UU0IrZiODhAVp-95">
          <mxGeometry relative="1" as="geometry">
            <Array as="points">
              <mxPoint x="1150" y="640" />
              <mxPoint x="890" y="640" />
              <mxPoint x="890" y="550" />
            </Array>
            <mxPoint x="1070" y="640" as="sourcePoint" />
          </mxGeometry>
        </mxCell>
        <mxCell id="4PjpEs8UU0IrZiODhAVp-134" style="edgeStyle=orthogonalEdgeStyle;rounded=0;orthogonalLoop=1;jettySize=auto;html=1;exitX=0;exitY=0.5;exitDx=0;exitDy=0;entryX=0;entryY=0.5;entryDx=0;entryDy=0;endArrow=none;endFill=0;" parent="1" source="4PjpEs8UU0IrZiODhAVp-131" target="4PjpEs8UU0IrZiODhAVp-38" edge="1">
          <mxGeometry relative="1" as="geometry" />
        </mxCell>
        <mxCell id="4PjpEs8UU0IrZiODhAVp-131" value="Friended" style="rhombus;whiteSpace=wrap;html=1;" parent="1" vertex="1">
          <mxGeometry x="115" y="670" width="155" height="80" as="geometry" />
        </mxCell>
        <mxCell id="4PjpEs8UU0IrZiODhAVp-132" value="" style="group" parent="1" vertex="1" connectable="0">
          <mxGeometry x="100" y="119" width="140" height="431" as="geometry" />
        </mxCell>
        <mxCell id="4PjpEs8UU0IrZiODhAVp-10" value="User" style="swimlane;fontStyle=0;childLayout=stackLayout;horizontal=1;startSize=30;horizontalStack=0;resizeParent=1;resizeParentMax=0;resizeLast=0;collapsible=1;marginBottom=0;whiteSpace=wrap;html=1;" parent="4PjpEs8UU0IrZiODhAVp-132" vertex="1">
          <mxGeometry width="140" height="390" as="geometry" />
        </mxCell>
        <mxCell id="4PjpEs8UU0IrZiODhAVp-11" value="&lt;u&gt;user_id&lt;/u&gt;: integer" style="text;strokeColor=none;fillColor=none;align=left;verticalAlign=middle;spacingLeft=4;spacingRight=4;overflow=hidden;points=[[0,0.5],[1,0.5]];portConstraint=eastwest;rotatable=0;whiteSpace=wrap;html=1;" parent="4PjpEs8UU0IrZiODhAVp-10" vertex="1">
          <mxGeometry y="30" width="140" height="30" as="geometry" />
        </mxCell>
        <mxCell id="4PjpEs8UU0IrZiODhAVp-12" value="birth_date: date&amp;nbsp;" style="text;strokeColor=none;fillColor=none;align=left;verticalAlign=middle;spacingLeft=4;spacingRight=4;overflow=hidden;points=[[0,0.5],[1,0.5]];portConstraint=eastwest;rotatable=0;whiteSpace=wrap;html=1;" parent="4PjpEs8UU0IrZiODhAVp-10" vertex="1">
          <mxGeometry y="60" width="140" height="30" as="geometry" />
        </mxCell>
        <mxCell id="4PjpEs8UU0IrZiODhAVp-13" value="birth_location: string" style="text;strokeColor=none;fillColor=none;align=left;verticalAlign=middle;spacingLeft=4;spacingRight=4;overflow=hidden;points=[[0,0.5],[1,0.5]];portConstraint=eastwest;rotatable=0;whiteSpace=wrap;html=1;" parent="4PjpEs8UU0IrZiODhAVp-10" vertex="1">
          <mxGeometry y="90" width="140" height="30" as="geometry" />
        </mxCell>
        <mxCell id="4PjpEs8UU0IrZiODhAVp-31" value="primary_residence: string" style="text;strokeColor=none;fillColor=none;align=left;verticalAlign=middle;spacingLeft=4;spacingRight=4;overflow=hidden;points=[[0,0.5],[1,0.5]];portConstraint=eastwest;rotatable=0;whiteSpace=wrap;html=1;" parent="4PjpEs8UU0IrZiODhAVp-10" vertex="1">
          <mxGeometry y="120" width="140" height="30" as="geometry" />
        </mxCell>
        <mxCell id="4PjpEs8UU0IrZiODhAVp-32" value="current_location: string" style="text;strokeColor=none;fillColor=none;align=left;verticalAlign=middle;spacingLeft=4;spacingRight=4;overflow=hidden;points=[[0,0.5],[1,0.5]];portConstraint=eastwest;rotatable=0;whiteSpace=wrap;html=1;" parent="4PjpEs8UU0IrZiODhAVp-10" vertex="1">
          <mxGeometry y="150" width="140" height="30" as="geometry" />
        </mxCell>
        <mxCell id="4PjpEs8UU0IrZiODhAVp-33" value="college: string" style="text;strokeColor=none;fillColor=none;align=left;verticalAlign=middle;spacingLeft=4;spacingRight=4;overflow=hidden;points=[[0,0.5],[1,0.5]];portConstraint=eastwest;rotatable=0;whiteSpace=wrap;html=1;" parent="4PjpEs8UU0IrZiODhAVp-10" vertex="1">
          <mxGeometry y="180" width="140" height="30" as="geometry" />
        </mxCell>
        <mxCell id="4PjpEs8UU0IrZiODhAVp-34" value="educational_level: string" style="text;strokeColor=none;fillColor=none;align=left;verticalAlign=middle;spacingLeft=4;spacingRight=4;overflow=hidden;points=[[0,0.5],[1,0.5]];portConstraint=eastwest;rotatable=0;whiteSpace=wrap;html=1;" parent="4PjpEs8UU0IrZiODhAVp-10" vertex="1">
          <mxGeometry y="210" width="140" height="30" as="geometry" />
        </mxCell>
        <mxCell id="4PjpEs8UU0IrZiODhAVp-35" value="parental_income: integer" style="text;strokeColor=none;fillColor=none;align=left;verticalAlign=middle;spacingLeft=4;spacingRight=4;overflow=hidden;points=[[0,0.5],[1,0.5]];portConstraint=eastwest;rotatable=0;whiteSpace=wrap;html=1;" parent="4PjpEs8UU0IrZiODhAVp-10" vertex="1">
          <mxGeometry y="240" width="140" height="30" as="geometry" />
        </mxCell>
        <mxCell id="4PjpEs8UU0IrZiODhAVp-36" value="primary_interest: string" style="text;strokeColor=none;fillColor=none;align=left;verticalAlign=middle;spacingLeft=4;spacingRight=4;overflow=hidden;points=[[0,0.5],[1,0.5]];portConstraint=eastwest;rotatable=0;whiteSpace=wrap;html=1;" parent="4PjpEs8UU0IrZiODhAVp-10" vertex="1">
          <mxGeometry y="270" width="140" height="30" as="geometry" />
        </mxCell>
        <mxCell id="4PjpEs8UU0IrZiODhAVp-37" value="profession: string" style="text;strokeColor=none;fillColor=none;align=left;verticalAlign=middle;spacingLeft=4;spacingRight=4;overflow=hidden;points=[[0,0.5],[1,0.5]];portConstraint=eastwest;rotatable=0;whiteSpace=wrap;html=1;" parent="4PjpEs8UU0IrZiODhAVp-10" vertex="1">
          <mxGeometry y="300" width="140" height="30" as="geometry" />
        </mxCell>
        <mxCell id="4PjpEs8UU0IrZiODhAVp-38" value="religion: string" style="text;strokeColor=none;fillColor=none;align=left;verticalAlign=middle;spacingLeft=4;spacingRight=4;overflow=hidden;points=[[0,0.5],[1,0.5]];portConstraint=eastwest;rotatable=0;whiteSpace=wrap;html=1;" parent="4PjpEs8UU0IrZiODhAVp-10" vertex="1">
          <mxGeometry y="330" width="140" height="30" as="geometry" />
        </mxCell>
        <mxCell id="4PjpEs8UU0IrZiODhAVp-39" value="race: integer" style="text;strokeColor=none;fillColor=none;align=left;verticalAlign=middle;spacingLeft=4;spacingRight=4;overflow=hidden;points=[[0,0.5],[1,0.5]];portConstraint=eastwest;rotatable=0;whiteSpace=wrap;html=1;" parent="4PjpEs8UU0IrZiODhAVp-10" vertex="1">
          <mxGeometry y="360" width="140" height="30" as="geometry" />
        </mxCell>
        <mxCell id="4PjpEs8UU0IrZiODhAVp-113" value="&lt;span style=&quot;color: rgb(0, 0, 0); font-family: Helvetica; font-size: 12px; font-style: normal; font-variant-ligatures: normal; font-variant-caps: normal; font-weight: 400; letter-spacing: normal; orphans: 2; text-align: left; text-indent: 0px; text-transform: none; widows: 2; word-spacing: 0px; -webkit-text-stroke-width: 0px; white-space: normal; background-color: rgb(251, 251, 251); text-decoration-thickness: initial; text-decoration-style: initial; text-decoration-color: initial; display: inline !important; float: none;&quot;&gt;constraint: birth_date cannot exceed today&#39;s date&amp;nbsp;&lt;/span&gt;" style="text;whiteSpace=wrap;html=1;" parent="4PjpEs8UU0IrZiODhAVp-132" vertex="1">
          <mxGeometry y="390" width="140" height="40" as="geometry" />
        </mxCell>
        <mxCell id="4PjpEs8UU0IrZiODhAVp-133" style="edgeStyle=orthogonalEdgeStyle;rounded=0;orthogonalLoop=1;jettySize=auto;html=1;entryX=1;entryY=0.5;entryDx=0;entryDy=0;endArrow=none;endFill=0;" parent="1" source="4PjpEs8UU0IrZiODhAVp-113" target="4PjpEs8UU0IrZiODhAVp-131" edge="1">
          <mxGeometry relative="1" as="geometry" />
        </mxCell>
        <mxCell id="MUsphGuOdu-jn4XWuw0r-2" value="" style="endArrow=none;dashed=1;html=1;rounded=0;" parent="1" edge="1">
          <mxGeometry width="50" height="50" relative="1" as="geometry">
            <mxPoint x="880" y="580" as="sourcePoint" />
            <mxPoint x="880" y="520" as="targetPoint" />
          </mxGeometry>
        </mxCell>
        <mxCell id="MUsphGuOdu-jn4XWuw0r-3" value="total" style="text;html=1;align=center;verticalAlign=middle;resizable=0;points=[];autosize=1;strokeColor=none;fillColor=none;" parent="1" vertex="1">
          <mxGeometry x="850" y="475" width="50" height="30" as="geometry" />
        </mxCell>
        <mxCell id="MUsphGuOdu-jn4XWuw0r-4" value="" style="endArrow=none;dashed=1;html=1;rounded=0;" parent="1" edge="1">
          <mxGeometry width="50" height="50" relative="1" as="geometry">
            <mxPoint x="1370" y="200" as="sourcePoint" />
            <mxPoint x="1370" y="250" as="targetPoint" />
          </mxGeometry>
        </mxCell>
        <mxCell id="MUsphGuOdu-jn4XWuw0r-5" value="Total" style="text;html=1;align=center;verticalAlign=middle;whiteSpace=wrap;rounded=0;" parent="1" vertex="1">
          <mxGeometry x="1350" y="260" width="60" height="30" as="geometry" />
        </mxCell>
        <mxCell id="HNZjRyxz7ARNzgIqMJ-2-6" style="edgeStyle=orthogonalEdgeStyle;rounded=0;orthogonalLoop=1;jettySize=auto;html=1;exitX=0.5;exitY=1;exitDx=0;exitDy=0;" parent="1" source="HNZjRyxz7ARNzgIqMJ-2-1" edge="1">
          <mxGeometry relative="1" as="geometry">
            <mxPoint x="629.5" y="370" as="targetPoint" />
          </mxGeometry>
        </mxCell>
        <mxCell id="HNZjRyxz7ARNzgIqMJ-2-1" value="Paid_by" style="rhombus;whiteSpace=wrap;html=1;" parent="1" vertex="1">
          <mxGeometry x="552.5" y="255" width="155" height="80" as="geometry" />
        </mxCell>
        <mxCell id="HNZjRyxz7ARNzgIqMJ-2-3" style="edgeStyle=orthogonalEdgeStyle;rounded=0;orthogonalLoop=1;jettySize=auto;html=1;exitX=0;exitY=0.5;exitDx=0;exitDy=0;entryX=1;entryY=0.5;entryDx=0;entryDy=0;endArrow=none;endFill=0;shape=link;" parent="1" source="HNZjRyxz7ARNzgIqMJ-2-2" target="4PjpEs8UU0IrZiODhAVp-45" edge="1">
          <mxGeometry relative="1" as="geometry" />
        </mxCell>
        <mxCell id="HNZjRyxz7ARNzgIqMJ-2-2" value="" style="rounded=0;whiteSpace=wrap;html=1;fillColor=none;" parent="1" vertex="1">
          <mxGeometry x="540" y="100" width="183.75" height="380" as="geometry" />
        </mxCell>
        <mxCell id="ao48UMOlkTmNIIt56R8A-1" value="Referred" style="rhombus;whiteSpace=wrap;html=1;" vertex="1" parent="1">
          <mxGeometry x="1150" y="500" width="155" height="80" as="geometry" />
        </mxCell>
        <mxCell id="ao48UMOlkTmNIIt56R8A-3" value="" style="whiteSpace=wrap;html=1;fillColor=none;" vertex="1" parent="1">
          <mxGeometry x="1120" y="400" width="220" height="330" as="geometry" />
        </mxCell>
        <mxCell id="ao48UMOlkTmNIIt56R8A-5" style="edgeStyle=orthogonalEdgeStyle;rounded=0;orthogonalLoop=1;jettySize=auto;html=1;exitX=0.5;exitY=1;exitDx=0;exitDy=0;entryX=0.56;entryY=0.055;entryDx=0;entryDy=0;entryPerimeter=0;" edge="1" parent="1" source="ao48UMOlkTmNIIt56R8A-1" target="4PjpEs8UU0IrZiODhAVp-95">
          <mxGeometry relative="1" as="geometry" />
        </mxCell>
        <mxCell id="ao48UMOlkTmNIIt56R8A-10" style="edgeStyle=orthogonalEdgeStyle;rounded=0;orthogonalLoop=1;jettySize=auto;html=1;exitX=0.5;exitY=0;exitDx=0;exitDy=0;entryX=0.579;entryY=1.003;entryDx=0;entryDy=0;entryPerimeter=0;" edge="1" parent="1" source="4PjpEs8UU0IrZiODhAVp-99" target="ao48UMOlkTmNIIt56R8A-3">
          <mxGeometry relative="1" as="geometry">
            <Array as="points">
              <mxPoint x="1247" y="731" />
            </Array>
          </mxGeometry>
        </mxCell>
      </root>
    </mxGraphModel>
  </diagram>
</mxfile>
